<svg width="126" height="126" viewBox="0 0 126 126" fill="none" xmlns="http://www.w3.org/2000/svg">
<g filter="url(#filter0_d_0_426)">
<rect x="35" y="15" width="56" height="56" rx="10" fill="black"/>
</g>
<path d="M70.5555 49.3333H57.3333L53.4444 33H51.1111M54.2222 36.1111H72.8889L70.5555 46.2222H56.5555L54.2222 36.1111Z" stroke="white" stroke-width="1.5" stroke-linecap="round" stroke-linejoin="round"/>
<path d="M69 54C69.8591 54 70.5555 53.3036 70.5555 52.4445C70.5555 51.5854 69.8591 50.8889 69 50.8889C68.1408 50.8889 67.4444 51.5854 67.4444 52.4445C67.4444 53.3036 68.1408 54 69 54Z" stroke="white" stroke-width="1.5" stroke-linecap="round" stroke-linejoin="round"/>
<path d="M58.8889 54C59.748 54 60.4444 53.3036 60.4444 52.4445C60.4444 51.5854 59.748 50.8889 58.8889 50.8889C58.0298 50.8889 57.3333 51.5854 57.3333 52.4445C57.3333 53.3036 58.0298 54 58.8889 54Z" stroke="white" stroke-width="1.5" stroke-linecap="round" stroke-linejoin="round"/>
<defs>
<filter id="filter0_d_0_426" x="0" y="0" width="126" height="126" filterUnits="userSpaceOnUse" color-interpolation-filters="sRGB">
<feFlood flood-opacity="0" result="BackgroundImageFix"/>
<feColorMatrix in="SourceAlpha" type="matrix" values="0 0 0 0 0 0 0 0 0 0 0 0 0 0 0 0 0 0 127 0" result="hardAlpha"/>
<feOffset dy="20"/>
<feGaussianBlur stdDeviation="17.5"/>
<feColorMatrix type="matrix" values="0 0 0 0 0 0 0 0 0 0 0 0 0 0 0 0 0 0 0.15 0"/>
<feBlend mode="normal" in2="BackgroundImageFix" result="effect1_dropShadow_0_426"/>
<feBlend mode="normal" in="SourceGraphic" in2="effect1_dropShadow_0_426" result="shape"/>
</filter>
</defs>
</svg>
