<svg width="72" height="15" viewBox="0 0 72 15" fill="none" xmlns="http://www.w3.org/2000/svg">
<path fill-rule="evenodd" clip-rule="evenodd" d="M9.05711 5.94037L7.43864 0.611084L5.82017 5.94037H0.335632L4.77298 9.3904L3.1261 14.8171L7.43864 11.4635L11.7512 14.8171L10.1043 9.3904L14.5416 5.94037H9.05711Z" fill="#FCA120"/>
<path fill-rule="evenodd" clip-rule="evenodd" d="M23.2631 5.94037L21.6446 0.611084L20.0261 5.94037H14.5416L18.9789 9.3904L17.3321 14.8171L21.6446 11.4635L25.9571 14.8171L24.3103 9.3904L28.7476 5.94037H23.2631Z" fill="#FCA120"/>
<path fill-rule="evenodd" clip-rule="evenodd" d="M37.4691 5.94037L35.8506 0.611084L34.2322 5.94037H28.7476L33.185 9.3904L31.5381 14.8171L35.8506 11.4635L40.1632 14.8171L38.5163 9.3904L42.9536 5.94037H37.4691Z" fill="#FCA120"/>
<path fill-rule="evenodd" clip-rule="evenodd" d="M51.6751 5.94037L50.0567 0.611084L48.4382 5.94037H42.9536L47.391 9.3904L45.7441 14.8171L50.0567 11.4635L54.3692 14.8171L52.7223 9.3904L57.1597 5.94037H51.6751Z" fill="#FCA120"/>
<path fill-rule="evenodd" clip-rule="evenodd" d="M65.8811 5.94037L64.2627 0.611084L62.6442 5.94037H57.1597L61.597 9.3904L59.9501 14.8171L64.2627 11.4635L68.5752 14.8171L66.9283 9.3904L71.3657 5.94037H65.8811Z" fill="#FCA120"/>
</svg>
