<svg width="72" height="15" viewBox="0 0 72 15" fill="none" xmlns="http://www.w3.org/2000/svg">
<path fill-rule="evenodd" clip-rule="evenodd" d="M8.99848 5.34603L7.375 0.000244141L5.75152 5.34603H0.25L4.70109 8.80674L3.04911 14.2502L7.375 10.8862L11.7009 14.2502L10.0489 8.80674L14.5 5.34603H8.99848Z" fill="#FCA120"/>
<path fill-rule="evenodd" clip-rule="evenodd" d="M23.2486 5.34603L21.6252 0.000244141L20.0017 5.34603H14.5002L18.9512 8.80674L17.2993 14.2502L21.6252 10.8862L25.951 14.2502L24.2991 8.80674L28.7502 5.34603H23.2486Z" fill="#FCA120"/>
<path fill-rule="evenodd" clip-rule="evenodd" d="M37.4983 5.34603L35.8748 0.000244141L34.2513 5.34603H28.7498L33.2009 8.80674L31.5489 14.2502L35.8748 10.8862L40.2007 14.2502L38.5487 8.80674L42.9998 5.34603H37.4983Z" fill="#FCA120"/>
<path fill-rule="evenodd" clip-rule="evenodd" d="M51.7485 5.34603L50.125 0.000244141L48.5015 5.34603H43L47.4511 8.80674L45.7991 14.2502L50.125 10.8862L54.4509 14.2502L52.7989 8.80674L57.25 5.34603H51.7485Z" fill="#FCA120"/>
<path fill-rule="evenodd" clip-rule="evenodd" d="M65.9984 5.34603L64.3749 0.000244141L62.7514 5.34603H57.2499L61.701 8.80674L60.049 14.2502L64.3749 10.8862L68.7008 14.2502L67.0488 8.80674L71.4999 5.34603H65.9984Z" fill="#FCA120"/>
</svg>
