<svg width="17" height="26" viewBox="0 0 17 26" fill="none" xmlns="http://www.w3.org/2000/svg">
<path fill-rule="evenodd" clip-rule="evenodd" d="M8.5 26C8.24955 26 8.00936 25.9022 7.83227 25.728C7.65518 25.5539 7.55569 25.3177 7.55569 25.0715L7.55569 3.1716L1.61408 9.01566C1.43676 9.19001 1.19627 9.28796 0.945502 9.28796C0.694739 9.28796 0.454247 9.19001 0.27693 9.01566C0.0996136 8.84131 -1.52073e-06 8.60484 -1.54229e-06 8.35827C-1.56384e-06 8.1117 0.0996135 7.87523 0.27693 7.70088L7.83142 0.272786C7.91914 0.186316 8.02335 0.117713 8.13807 0.0709046C8.2528 0.0240963 8.37579 7.53952e-07 8.5 7.43094e-07C8.62421 7.32235e-07 8.7472 0.0240963 8.86192 0.0709045C8.97665 0.117713 9.08085 0.186316 9.16857 0.272786L16.7231 7.70088C16.9004 7.87523 17 8.1117 17 8.35827C17 8.60484 16.9004 8.84131 16.7231 9.01566C16.5458 9.19001 16.3053 9.28795 16.0545 9.28795C15.8037 9.28795 15.5632 9.19001 15.3859 9.01566L9.44431 3.1716L9.44431 25.0715C9.44431 25.3177 9.34482 25.5539 9.16773 25.728C8.99063 25.9022 8.75045 26 8.5 26Z" fill="black"/>
</svg>
